<?xml version="1.0" encoding="UTF-8" standalone="no"?><!DOCTYPE svg PUBLIC "-//W3C//DTD SVG 1.1//EN" "http://www.w3.org/Graphics/SVG/1.1/DTD/svg11.dtd"><svg xmlns="http://www.w3.org/2000/svg" xmlns:xlink="http://www.w3.org/1999/xlink" version="1.1" width="50pt" height="51pt" viewBox="0 0 50 51"><g enable-background="new"><g><mask id="ma0"><g><g clip-path="url(#cp1)"><path transform="matrix(1,0,0,-1,7,43.76013)" d="M 36.150564 34.76013 L 0 34.76013 L 0 -.000023 L 36.150564 -.000023 L 36.150564 34.76013 Z" fill="#ffffff"/></g></g>&quot;/&gt;</mask><clipPath id="cp1"><path transform="matrix(1,0,0,-1,0,51)" d="M 0 0 L 50 0 L 50 51 L 0 51 Z"/></clipPath><g mask="url(#ma0)"><g><clipPath id="cp2"><path transform="matrix(1,0,0,-1,0,51)" d="M 0 0 L 50 0 L 50 51 L 0 51 Z"/></clipPath><g clip-path="url(#cp2)"><path transform="matrix(1,0,0,-1,12.072754,37.288698)" d="M 26.285115 2.532754 C 19.603476 1.633328 13.059031 .033968 6.755646 -2.374655 C 5.960822 -2.678383 5.414075 -3.439323 5.655043 -4.318384 C 5.864158 -5.081637 6.794054 -5.727509 7.593494 -5.422022 C 13.611687 -3.122356 19.899653 -1.487078 26.285115 -.627457 C 27.128502 -.513964 27.861008 .017489 27.861008 .952556 C 27.861008 1.718031 27.134779 2.64708 26.285115 2.532754 Z" fill="#ff5c5c" fill-rule="evenodd"/><path transform="matrix(1,0,0,-1,12.072754,39.060548)" d="M 29.401213 10.13795 C 19.765364 8.928779 10.300038 6.728072 1.157389 3.43539 C .356748 3.147029 -.181137 2.359336 .056692 1.491662 C .269316 .715818 1.190441 .098181 1.995237 .388022 C 10.856203 3.579246 20.057572 5.805226 29.401213 6.977738 C 30.245524 7.083733 30.977105 7.628146 30.977105 8.557843 C 30.977105 9.329429 30.251524 10.244685 29.401213 10.13795 Z" fill="#ff5c5c" fill-rule="evenodd"/><path transform="matrix(1,0,0,-1,30.31836,27.941956)" d="M 7.677359 17.215804 C 6.170802 17.696066 4.450789 17.746518 3.111526 16.7934 C 2.27811 16.2002 1.625744 15.390013 1.178522 14.46985 C .179937 12.415777 -.154925 10.001509 .064162 7.736742 C .269584 5.613148 .879019 3.258679 2.632083 1.880935 C 4.776974 .195204 8.014343 .836355 9.664834 2.909406 C 11.90685 5.725344 11.567279 9.789426 10.648831 13.045172 C 10.097744 14.998989 7.055734 14.168622 7.609683 12.205084 C 8.186436 10.160453 8.589341 7.490685 7.682804 5.632309 C 7.484398 5.225549 7.271314 4.952556 7.179266 4.858132 C 6.675449 4.341305 5.804918 3.933527 5.083123 4.110339 C 3.774418 4.430915 3.405303 6.563396 3.228132 7.587146 C 3.030741 8.727536 3.14301 9.65242 3.239951 10.451777 C 3.389056 11.680665 3.649227 12.250629 3.743675 12.4454 C 4.029882 13.035914 4.368344 13.733905 5.083123 14.025506 C 5.555087 14.217962 6.36293 14.303406 6.839418 14.168436 C 6.942914 14.139183 7.315629 14.032356 7.744571 14.148441 C 7.762943 14.15344 7.777439 14.158901 7.792211 14.16427 C 8.989664 14.597969 9.248634 16.7149 7.677359 17.215804 Z" fill="#ff5c5c" fill-rule="evenodd"/><path transform="matrix(1,0,0,-1,17.558594,30.45996)" d="M 7.677267 17.215775 C 6.170803 17.696036 4.450791 17.74658 3.111528 16.79337 C 2.278019 16.20017 1.625745 15.390076 1.178431 14.469913 C .179938 12.415749 -.154924 10.001572 .064162 7.736806 C .269493 5.613119 .879021 3.258652 2.632084 1.880907 C 4.776975 .195271 8.014344 .836422 9.664835 2.909472 C 11.906851 5.725317 11.56728 9.789397 10.648832 13.045143 C 10.097653 14.99896 7.055736 14.168684 7.609685 12.205054 C 8.186346 10.160517 8.589343 7.490658 7.682806 5.632281 C 7.484307 5.225614 7.271314 4.952621 7.179173 4.858105 C 6.675449 4.34137 5.80492 3.933591 5.083124 4.110403 C 3.77442 4.430979 3.405305 6.56346 3.228134 7.587118 C 3.030744 8.727601 3.142918 9.652483 3.239951 10.451748 C 3.388964 11.680729 3.649227 12.2506 3.743675 12.445463 C 4.029882 13.035885 4.368345 13.733969 5.083124 14.025476 C 5.555089 14.218025 6.36293 14.30347 6.839418 14.1685 C 6.942822 14.139154 7.315629 14.032328 7.74457 14.148504 C 7.762943 14.153411 7.777439 14.158873 7.792211 14.164242 C 8.989663 14.598032 9.248635 16.714869 7.677267 17.215775 Z" fill="#ff5c5c" fill-rule="evenodd"/><path transform="matrix(1,0,0,-1,7.462891,32.906984)" d="M 8.421781 2.158735 C 8.023122 7.030043 7.624555 11.901256 7.225989 16.772562 C 7.119354 18.075695 5.548539 18.934853 4.535736 17.889904 C 3.174684 16.48559 1.813539 15.081278 .452487 13.676966 C -.96193 12.217666 1.264391 9.980671 2.681115 11.442378 C 3.243373 12.022432 3.805631 12.602579 4.367982 13.182726 C 4.668591 9.508093 4.969294 5.833368 5.269996 2.158735 C 5.339516 1.308187 5.944428 .578629 6.845888 .578629 C 7.644497 .578629 8.491763 1.303465 8.421781 2.158735 Z" fill="#ff5c5c" fill-rule="evenodd"/></g></g></g></g></g></svg>