<?xml version="1.0"?>
<svg width="34" height="34" xmlns="http://www.w3.org/2000/svg" xmlns:svg="http://www.w3.org/2000/svg" xmlns:xlink="http://www.w3.org/1999/xlink">
 <g class="layer">
  <title>Layer 1</title>
  <path d="m8.27,11.47c0,1.62 0.82,3.05 2.08,3.92l5.36,4.68c0.63,0.55 1.59,0.55 2.22,-0.02l5.39,-4.86c1.11,-0.88 1.82,-2.22 1.82,-3.73c0,-2.65 -2.19,-4.8 -4.9,-4.8c-1.39,0 -2.63,0.56 -3.53,1.46c-0.89,-0.9 -2.14,-1.46 -3.53,-1.46c-2.71,0 -4.9,2.15 -4.9,4.8z" fill="#FF4B4B" id="svg_1" stroke="#cecece" stroke-width="2"/>
  <path clip-rule="evenodd" d="m13.69,14.51c1.34,0 2.43,-1.12 2.43,-2.5c0,-1.37 -1.09,-2.5 -2.43,-2.5c-1.34,0 -2.42,1.12 -2.42,2.5c0,1.38 1.08,2.5 2.42,2.5z" fill="white" fill-rule="evenodd" id="svg_2" opacity="0.3" transform="matrix(1 0 0 1 0 0)"/>
  <use id="svg_4" transform="matrix(0.620863 0 0 0.620863 5.78908 9.4896)" x="8.44" xlink:href="#svg_3" y="21.27"/>
 </g>
 <defs>
  <symbol height="10" id="svg_3" viewBox="0 0 20 10" width="20" xmlns="http://www.w3.org/2000/svg">
   <path d="m15.03,9.64c-1.79,0 -3.37,-0.89 -5.13,-2.71c-1.78,1.87 -3.42,2.71 -5.15,2.71c-2.71,0 -4.75,-1.96 -4.75,-4.81c0,-2.84 2.04,-4.83 4.81,-4.83c1.67,0 3.16,0.83 5.06,2.79c1.93,-1.98 3.37,-2.79 5.13,-2.79c2.7,0 4.8,1.93 4.8,4.83c0,2.82 -2.04,4.81 -4.77,4.81zm-0.15,-2.68c1.35,0 2.1,-1 2.1,-2.18c0,-1.13 -0.75,-2.1 -2.1,-2.1c-0.83,0 -1.64,0.48 -3.14,2.15c1.44,1.56 2.22,2.13 3.14,2.13zm-9.96,0c0.87,0 1.67,-0.54 3.11,-2.13c-1.41,-1.58 -2.22,-2.15 -3.11,-2.15c-1.35,0 -2.07,0.95 -2.07,2.1c0,1.2 0.75,2.18 2.07,2.18z" fill="#FF4B4B"/>
  </symbol>
 </defs>
</svg>