<svg xmlns="http://www.w3.org/2000/svg" xmlns:xlink="http://www.w3.org/1999/xlink" viewBox="0,0,256,256" width="50px"
    height="50px">
    <g fill="#efefef" fill-rule="nonzero" stroke="none" stroke-width="1" stroke-linecap="butt" stroke-linejoin="miter"
        stroke-miterlimit="10" stroke-dasharray="" stroke-dashoffset="0" font-family="none" font-weight="none"
        font-size="none" text-anchor="none" style="mix-blend-mode: normal">
        <g transform="scale(5.12,5.12)">
            <path
                d="M25,11c-10.27,0 -24.09969,12.72953 -24.67969,13.26953c-0.2,0.18 -0.31031,0.44094 -0.32031,0.71094c0,0.27 0.09906,0.54047 0.28906,0.73047c0.46,0.45 9.01062,8.92938 17.64063,12.60937c0.72,-1.3 1.30953,-2.71023 1.76953,-3.99023c-2.82,-1.95 -4.69922,-5.40008 -4.69922,-9.33008c0,-6.08 4.48,-11 10,-11c5.52,0 10,4.92 10,11c0,4.07 -2.01,7.62953 -5,9.51953v4.58984c9.28,-3.06 19.21094,-12.90844 19.71094,-13.39844c0.19,-0.19 0.28906,-0.46047 0.28906,-0.73047c0,-0.27 -0.12031,-0.53094 -0.32031,-0.71094c-0.58,-0.54 -14.40969,-13.26953 -24.67969,-13.26953zM25,16l-7,9l5,5c0,6 -3,8 -3,8c0,0 1.38522,0.68464 3,0.91797v4.08203h2v-4h1v4h2v-5v-8l4,-5zM25,23l4,3.5l-3.5,3.5l-4,-3.5zM25,24.41406l-2.0293,2.0293l2.41016,2.13672l2.26563,-2.01758z">
            </path>
        </g>
    </g>
</svg>