<svg width="130" height="130" viewBox="0 0 130 130" fill="none" xmlns="http://www.w3.org/2000/svg">
<path fill-rule="evenodd" clip-rule="evenodd" d="M77.7521 29.4703C77.1568 23.6166 69.6412 21.6028 66.1988 26.3746L37.8664 65.6486C35.2461 69.2809 37.0729 74.4121 41.399 75.5713L57.5164 79.8899L59.8973 103.302C60.4926 109.156 68.0083 111.169 71.4507 106.398L99.7831 67.1235C102.403 63.4912 100.577 58.36 96.2504 57.2008L80.133 52.8822L77.7521 29.4703Z" fill="#FFE035"/>
<path d="M43.4266 70.8437C41.961 70.448 41.8194 68.4242 43.2158 67.8284L54.4174 63.049C55.4288 62.6175 56.5639 63.3116 56.6406 64.4086L57.1968 72.3619C57.2735 73.4588 56.246 74.3042 55.1844 74.0176L43.4266 70.8437Z" fill="#F7C100"/>
<path d="M94.7587 61.1448C96.2243 61.5405 96.3659 63.5643 94.9695 64.1601L83.7679 68.9395C82.7565 69.371 81.6214 68.6769 81.5447 67.58L80.9885 59.6266C80.9118 58.5297 81.9393 57.6843 83.0009 57.9709L94.7587 61.1448Z" fill="#FFEF8F"/>
<path d="M84.1855 28.8124C83.1609 17.2609 68.4003 13.1014 61.495 22.4181L32.6852 61.2885C27.4289 68.3804 30.8988 78.5393 39.3953 80.9337L51.3132 84.2922L53.0115 103.44C54.0361 114.991 68.7967 119.151 75.702 109.834L104.512 70.9634C109.768 63.8715 106.298 53.7127 97.8017 51.3183L85.8838 47.9598L84.1855 28.8124Z" stroke="#878248" stroke-width="4.11314"/>
<rect x="95.98" y="29.6318" width="8.37126" height="8.37126" rx="1.74107" transform="rotate(-45 95.98 29.6318)" fill="#706E41"/>
<rect x="20" y="91.6235" width="8.37126" height="8.37126" rx="1.74107" transform="rotate(-45 20 91.6235)" fill="#706E41"/>
<rect x="29.522" y="101.144" width="10.9181" height="10.9181" rx="1.74107" transform="rotate(-45 29.522 101.144)" fill="#414733"/>
</svg>
