<svg width="58" height="80" viewBox="0 0 58 80" fill="none" xmlns="http://www.w3.org/2000/svg"><path fill-rule="evenodd" clip-rule="evenodd" d="M37.3438 7.63257C40.6748 7.63257 43.3753 10.3329 43.3753 13.6641C43.3753 16.7724 41.0241 19.3315 38.0033 19.66L38.0026 49.2755C38.0026 52.9929 34.989 56.0065 31.2716 56.0065H27.2726C23.5552 56.0065 20.5416 52.9929 20.5416 49.2755L20.5418 19.66C17.5205 19.3319 15.1689 16.7726 15.1689 13.6641C15.1689 10.3329 17.8694 7.63257 21.2005 7.63257H37.3438Z" fill="#F0DAFF"/><path d="M36.0335 12.4309H31.2373C29.9124 12.4309 28.8384 13.5049 28.8384 14.8298C28.8384 16.1547 29.9124 17.2287 31.2373 17.2287H36.0335C37.3584 17.2287 38.4324 16.1547 38.4324 14.8298C38.4324 13.5049 37.3584 12.4309 36.0335 12.4309Z" fill="#FDFAFF"/><path d="M24.9979 0L21.3321 0C21.1092 0 20.8876 0.0325289 20.6742 0.0965566C19.4631 0.459891 18.7758 1.73624 19.1391 2.94735L20.5444 7.63158H38.0055L39.4108 2.94735C39.4748 2.73392 39.5073 2.5123 39.5073 2.28948C39.5073 1.02503 38.4823 0 37.2178 0L28.5069 0L28.1688 0.842222C27.8549 1.62452 26.9661 2.00415 26.1838 1.69016C25.7973 1.53503 25.491 1.22871 25.3359 0.842222L24.9979 0Z" fill="#B37553"/><path fill-rule="evenodd" clip-rule="evenodd" d="M27.4737 24.4177H30.5263C45.6996 24.4177 58 36.7181 58 51.8915C58 67.0648 45.6996 79.3654 30.5263 79.3654H27.4737C12.3004 79.3654 0 67.0648 0 51.8915C0 36.7181 12.3004 24.4177 27.4737 24.4177Z" fill="#F0DAFF"/><path fill-rule="evenodd" clip-rule="evenodd" d="M27.4724 28.9988H30.525C43.1694 28.9988 53.4198 39.2491 53.4198 51.8935C53.4198 64.5379 43.1694 74.7882 30.525 74.7882H27.4724C14.8279 74.7882 4.57764 64.5379 4.57764 51.8935C4.57764 39.2491 14.8279 28.9988 27.4724 28.9988Z" fill="#CD82FF"/><path fill-rule="evenodd" clip-rule="evenodd" d="M16.2995 28.2397H41.4837L50.6416 34.345H7.1416L16.2995 28.2397Z" fill="#F0DAFF"/><path d="M33.8538 43.4997C37.2257 43.4997 39.9591 40.7663 39.9591 37.3944C39.9591 34.0226 37.2257 31.2892 33.8538 31.2892C30.4819 31.2892 27.7485 34.0226 27.7485 37.3944C27.7485 40.7663 30.4819 43.4997 33.8538 43.4997Z" fill="#CD82FF"/><path d="M21.7999 40.6084C18.1835 40.6084 15.7546 42.6489 15.2641 45.0226L15.2618 45.0337L15.2563 45.0668C15.2309 45.2175 15.1956 45.4281 15.1956 45.6189C15.1956 47.0067 16.2458 47.9524 17.5663 47.9524C18.642 47.9524 19.4112 47.3149 19.876 46.3578C20.1001 45.8997 20.3449 45.5948 20.6132 45.4028C20.8733 45.2166 21.1952 45.1079 21.6317 45.1079C22.1596 45.1079 22.5158 45.2839 22.7438 45.5306C22.9779 45.784 23.1301 46.1705 23.1301 46.6786C23.1301 47.459 22.8294 48.1059 22.1509 48.9104L22.15 48.9115L16.2065 55.9944C15.3144 57.0535 14.8872 57.7794 14.8872 58.8095C14.8872 59.4477 15.1197 60.0312 15.5684 60.4527C16.0146 60.8718 16.6272 61.0871 17.314 61.0871H26.0616C26.7529 61.0871 27.3637 60.8841 27.8059 60.4645C28.2507 60.0424 28.4603 59.4619 28.4603 58.8374C28.4603 58.2034 28.2536 57.6159 27.8085 57.1884C27.3654 56.7629 26.7529 56.5597 26.0616 56.5597H21.9688L26.185 51.6165L26.1869 51.6142C27.4132 50.162 28.2641 48.6335 28.2641 46.6228C28.2641 44.9374 27.6451 43.4227 26.5039 42.3308C25.3632 41.2393 23.7413 40.6084 21.7999 40.6084Z" fill="white"/><path d="M33.4945 47.1627C32.3297 47.1627 31.3038 47.9997 31.3038 49.225C31.3038 49.7143 31.48 50.1563 31.7498 50.5371L34.2363 53.9705L31.5316 57.7111L31.5266 57.7182C31.2567 58.099 31.0806 58.5411 31.0806 59.0303C31.0806 60.2556 32.1065 61.0925 33.2712 61.0925C34.0475 61.0925 34.6873 60.7432 35.1441 60.1001L36.9186 57.633L38.6931 60.1001C39.1498 60.7432 39.7896 61.0925 40.566 61.0925C41.7308 61.0925 42.7566 60.2556 42.7566 59.0303C42.7566 58.5411 42.5804 58.099 42.3106 57.7182L42.3073 57.7136L39.5847 53.9706L42.0838 50.542L42.0873 50.537C42.3571 50.1563 42.5333 49.7143 42.5333 49.225C42.5333 47.9997 41.5074 47.1627 40.3426 47.1627C39.5665 47.1627 38.9268 47.512 38.47 48.1549L36.9186 50.3086L35.3672 48.1549C34.9104 47.5121 34.2707 47.1627 33.4945 47.1627Z" fill="white"/></svg>